PathFileType	4	(X/Y/Z)	./resultDataOpenSim/trcMotMarkerGrf/sub10/qtm-13-04.trc
DataRate	CameraRate	NumFrames	NumMarkers	Units	OrigDataRate	OrigDataStartFrame	OrigNumFrames
250.000000	250.000000	10	24	m	250.000000	240	479
Frame#	Time	L.Toe.Tip			R.Toe.Tip			L.Ankle.Lat			R.Ankle.Lat			L.Ankle.Med			R.Ankle.Med			L.Heel			R.Heel			L.Knee.Lat			R.Knee.Lat			L.Knee.Med			R.Knee.Med			L.Thigh.Upper			R.Thigh.Upper			L.ASIS			R.ASIS			V.Sacral			L.Acromium			R.Acromium			C7			L.Elbow			R.Elbow			L.Wrist.Lat			R.Wrist.Lat
		X1	Y1	Z1	X2	Y2	Z2	X3	Y3	Z3	X4	Y4	Z4	X5	Y5	Z5	X6	Y6	Z6	X7	Y7	Z7	X8	Y8	Z8	X9	Y9	Z9	X10	Y10	Z10	X11	Y11	Z11	X12	Y12	Z12	X13	Y13	Z13	X14	Y14	Z14	X15	Y15	Z15	X16	Y16	Z16	X17	Y17	Z17	X18	Y18	Z18	X19	Y19	Z19	X20	Y20	Z20	X21	Y21	Z21	X22	Y22	Z22	X23	Y23	Z23	X24	Y24	Z24

240	0.956	0.061961923	-0.00968365	-0.15492707	0.4137725	0.1007437	0.068750439	-0.061728622	0.032560463	-0.18502281	0.27737987	0.14082556	0.060615282	-0.046913854	0.054529196	-0.09998847	0.32517507	0.14977073	-0.016223222	-0.13535819	0.02288633	-0.14328597	0.23823341	0.11339323	0.0039337806	0.1660254	0.33604973	-0.21882335	0.4093481	0.50304032	0.060038733	0.17324939	0.32174236	-0.098792261	0.44090489	0.50882547	-0.068676411	0.12289464	0.7258501	-0.29632422	0.11108774	0.75187378	0.086928108	0.17709475	0.8316836	-0.23049719	0.17710801	0.84510483	0.0097742412	-0.028051155	0.85835986	-0.11462022	0.17824577	1.3088501	-0.26390155	0.12153542	1.3170399	0.047762261	0.067736077	1.3402009	-0.12834218	0.12920716	1.0048581	-0.43967077	-0.014760784	1.0187996	0.17243109	0.33615186	0.92439527	-0.55248463	0.029711624	0.928472	0.39970964
241	0.96	0.061899379	-0.009669095	-0.15491208	0.43581076	0.10025472	0.068187573	-0.061564217	0.032907098	-0.18492459	0.29836393	0.13646244	0.06109922	-0.046608197	0.054841123	-0.099853447	0.34518974	0.1472731	-0.016193647	-0.13523907	0.023524353	-0.14322309	0.25973949	0.10811681	0.0045023715	0.1673121	0.33557511	-0.21884003	0.41717744	0.50432741	0.059695343	0.1743953	0.32137277	-0.098783139	0.44741011	0.51065116	-0.068876951	0.12809429	0.72630867	-0.29599323	0.11923273	0.75290541	0.087878399	0.18262678	0.83191372	-0.23113839	0.18433088	0.84529757	0.0096986379	-0.022018196	0.85866924	-0.11280139	0.18522462	1.3097702	-0.2634552	0.12830047	1.3177762	0.047848579	0.074520057	1.3408946	-0.12812378	0.13793942	1.0063641	-0.44076198	-0.010178473	1.0210098	0.17305714	0.34700446	0.92935816	-0.55246696	0.031070539	0.93219364	0.40154789
242	0.964	0.061836177	-0.0096504739	-0.15489251	0.45764661	0.099775215	0.067433886	-0.061411069	0.033272619	-0.18487083	0.31921175	0.13240968	0.061503113	-0.04630283	0.055166817	-0.099731658	0.36503571	0.14506548	-0.016343006	-0.13511526	0.024163308	-0.14318598	0.28116079	0.1032344	0.0050279622	0.16850172	0.33518677	-0.21882662	0.42479647	0.50527406	0.059447521	0.17544223	0.32106452	-0.098805789	0.45374674	0.51217641	-0.068962539	0.13327118	0.7268191	-0.29572511	0.12740423	0.75413277	0.088768006	0.18817624	0.8322772	-0.23180719	0.19169484	0.84563008	0.0097372055	-0.015735939	0.85899514	-0.11084721	0.19222238	1.3108081	-0.26298319	0.13506976	1.3186072	0.047921265	0.081310856	1.3416751	-0.12790118	0.14658276	1.0079847	-0.44173888	-0.0057213741	1.0233615	0.17365269	0.35769918	0.93434229	-0.55228242	0.032569489	0.93592509	0.40320084
243	0.968	0.0617731	-0.009633727	-0.15487272	0.47923665	0.099316386	0.066507153	-0.061270301	0.033667008	-0.18485819	0.33988935	0.12868437	0.061840656	-0.046024005	0.055506668	-0.099631827	0.38471029	0.14310109	-0.016548129	-0.1349856	0.024811815	-0.14317137	0.30233022	0.098785174	0.0055774996	0.16959586	0.33490641	-0.21878283	0.43222414	0.50590832	0.059287958	0.17649743	0.32079158	-0.098886671	0.46002007	0.51339836	-0.068973874	0.1384143	0.72737623	-0.29551506	0.13559783	0.75556015	0.089594045	0.19374599	0.83277766	-0.23250607	0.19918598	0.84612186	0.0098721566	-0.0091127022	0.85947949	-0.10843952	0.1992225	1.3119618	-0.26249046	0.14184326	1.3195315	0.047976985	0.088102847	1.3425377	-0.12766361	0.15512977	1.0097093	-0.44260662	-0.0013832498	1.0258022	0.17420269	0.36823926	0.93933137	-0.55193043	0.034212148	0.93965954	0.40467156
244	0.972	0.061718233	-0.0096237831	-0.15485444	0.5005467	0.098888897	0.065400725	-0.061136183	0.034087631	-0.18487747	0.3603995	0.12528293	0.06213277	-0.045779452	0.055861503	-0.099555003	0.40419911	0.14131363	-0.016694663	-0.13484771	0.025478069	-0.14317219	0.32319056	0.094792056	0.006119442	0.17054565	0.33475275	-0.21869751	0.43948882	0.50626266	0.059209315	0.17745803	0.32056125	-0.098924935	0.46626645	0.51431507	-0.06892079	0.14351228	0.72798177	-0.29534511	0.14380484	0.75718064	0.090361812	0.19934618	0.83341342	-0.23323594	0.20676639	0.84678772	0.010080244	-0.002423822	0.86032906	-0.10531694	0.20621623	1.3132278	-0.26198099	0.14861649	1.3205443	0.048029384	0.094886062	1.3434838	-0.12738674	0.16357129	1.0115315	-0.44334581	0.0029699441	1.0282075	0.17462857	0.37862641	0.94432218	-0.55141387	0.03601198	0.94338699	0.40596845
245	0.976	0.061675085	-0.0096196201	-0.1548349	0.52155978	0.098489166	0.064090119	-0.060994293	0.034529979	-0.18490436	0.38075521	0.122197	0.062374409	-0.045551144	0.056235297	-0.099490466	0.42342787	0.13967976	-0.016801335	-0.13469594	0.026170627	-0.14317591	0.34372912	0.091263264	0.0066247613	0.17131903	0.33474958	-0.21856809	0.44662754	0.50635952	0.059200668	0.178156	0.32040242	-0.098786506	0.47249028	0.51492924	-0.068799734	0.14855698	0.72864145	-0.29519367	0.15200917	0.75897397	0.091077042	0.2049906	0.83417532	-0.23398225	0.21439553	0.8476329	0.010350018	0.0038610587	0.86163134	-0.10171149	0.21320361	1.3146006	-0.26145478	0.15538113	1.3216411	0.048101133	0.10165291	1.3445188	-0.1270456	0.17190518	1.0134481	-0.44393941	0.0074784003	1.0304856	0.17485687	0.38886426	0.9493169	-0.55073888	0.037977467	0.94709502	0.40710111
246	0.98	0.061640237	-0.0096170355	-0.15481105	0.54227785	0.09809339	0.062546678	-0.060830942	0.035000091	-0.18491127	0.40096014	0.11941442	0.062539439	-0.045315159	0.056633805	-0.099424797	0.442317	0.13823407	-0.016946425	-0.13452523	0.026896623	-0.1431751	0.36391072	0.088199065	0.0071144384	0.17194599	0.33492074	-0.21841833	0.45368535	0.50621071	0.059238452	0.17853754	0.32035162	-0.098463724	0.47870012	0.5152502	-0.068613246	0.15354976	0.72936101	-0.29504723	0.16019152	0.76091077	0.091738397	0.21069348	0.83504742	-0.234712	0.22204529	0.84866062	0.010677254	0.0098641998	0.86319798	-0.098425713	0.2201785	1.3160768	-0.26091632	0.16212704	1.3228238	0.048206015	0.10841353	1.3456535	-0.12665449	0.18013179	1.0154541	-0.44440303	0.012108836	1.0326608	0.1749058	0.39895085	0.95431287	-0.54991407	0.040099922	0.95077311	0.40807449
247	0.984	0.061610523	-0.0096125425	-0.15478227	0.56269709	0.097673535	0.060745571	-0.060643163	0.035511267	-0.18489225	0.4209689	0.11692758	0.062629052	-0.045060527	0.057064953	-0.099356041	0.46082798	0.13700587	-0.017139826	-0.1343349	0.027665178	-0.14317279	0.38367969	0.085585188	0.0076089982	0.17245099	0.335269	-0.21827201	0.46071315	0.5058267	0.059286061	0.1786974	0.32045104	-0.0981276	0.48491196	0.51528964	-0.068370865	0.15850565	0.73014638	-0.2949055	0.16833889	0.76296632	0.092341639	0.21647042	0.83601613	-0.23539574	0.22972046	0.84987945	0.011047107	0.016285046	0.8647654	-0.096089957	0.22712567	1.3176585	-0.26037668	0.16884436	1.3241014	0.048346732	0.11520712	1.3469044	-0.12629885	0.18825234	1.0175408	-0.44477363	0.01669046	1.0348233	0.17486189	0.40887104	0.95930911	-0.54896065	0.042362554	0.95441622	0.40889119
248	0.988	0.061586104	-0.0096029491	-0.15474975	0.58276866	0.097232875	0.058680333	-0.060434218	0.036072805	-0.18486156	0.44068359	0.1147395	0.062689126	-0.044788346	0.057541416	-0.099294524	0.4789252	0.13599565	-0.017350066	-0.1341254	0.028492259	-0.14317662	0.40299961	0.083377883	0.0081129089	0.17280076	0.33577804	-0.21812487	0.46774746	0.50522384	0.059326993	0.17876828	0.32073185	-0.097961103	0.49114764	0.51505888	-0.068083328	0.16344757	0.73100778	-0.29476966	0.17645098	0.76512699	0.092886745	0.22234174	0.83707773	-0.2360299	0.23747166	0.85129274	0.011428496	0.023273542	0.86637424	-0.094388588	0.234035	1.3193484	-0.25984112	0.17552749	1.3254825	0.048522242	0.12207948	1.3482759	-0.12607793	0.19627761	1.0196944	-0.44507172	0.021118419	1.0370331	0.1747849	0.4186052	0.96431313	-0.54791142	0.044757	0.95802298	0.40955531
249	0.992	0.061568529	-0.0095852487	-0.15471539	0.6024156	0.096805773	0.056370824	-0.060202687	0.036691949	-0.1848327	0.46001482	0.11285188	0.06276839	-0.044497023	0.058080118	-0.099250966	0.49656868	0.1351969	-0.017560742	-0.13389212	0.029396772	-0.14319363	0.42187384	0.081524162	0.0086151892	0.17297347	0.33644922	-0.21796047	0.4747761	0.50442471	0.059393884	0.17880396	0.3211909	-0.097952031	0.49742764	0.51457368	-0.067759024	0.16837795	0.73195574	-0.29460824	0.18453167	0.76737621	0.093376397	0.22833475	0.83823382	-0.23662145	0.24535857	0.85288922	0.011784065	0.030148278	0.86833302	-0.092385419	0.24090741	1.3211428	-0.25930599	0.18218389	1.3269679	0.048732706	0.12902224	1.349742	-0.1259679	0.20422719	1.0218989	-0.44529502	0.025453497	1.039299	0.17466243	0.42815765	0.96931999	-0.54677308	0.047290723	0.9615873	0.41006941
